<svg xmlns="http://www.w3.org/2000/svg" viewBox="0 0 417.69 397.31"><defs><style>.cls-1{fill:#e2232d;}.cls-2,.cls-3{fill:none;}.cls-2,.cls-3,.cls-4{stroke:#fff;stroke-miterlimit:10;}.cls-2,.cls-4{stroke-width:2px;}.cls-3{stroke-width:2.01px;}.cls-4{fill:#fff;}</style></defs><title>Asset 1</title><g id="Layer_2" data-name="Layer 2"><g id="Layer_1-2" data-name="Layer 1"><path class="cls-1" d="M417.69,165.45l-36.12-7.86L406,129.19c-21.24-21.08-66.85-26.6-113.72-11.37a183.23,183.23,0,0,0-19.59,7.62,183.32,183.32,0,0,0,1.17-20.79c0-49.29-19.35-91-46-104.65L208.38,32,189.74,0c-26.56,13.74-45.86,55.37-45.86,104.6A183.31,183.31,0,0,0,145,125.44a183.23,183.23,0,0,0-19.59-7.62C78.58,102.58,33,108.11,11.73,129.19l24.39,28.41L0,165.45C4.86,195,38.49,226.19,85.3,241.4a183.32,183.32,0,0,0,20,5.29,183.35,183.35,0,0,0-13.06,16c-29,39.87-37.8,85-24.32,111.68L102.48,360l-3.69,36.79c29.56,4.5,69.65-17.84,98.58-57.66a183.18,183.18,0,0,0,11.47-17.86,183.18,183.18,0,0,0,11.47,17.86c28.93,39.83,69,62.16,98.58,57.66L315.21,360l34.55,14.42c13.48-26.71,4.64-71.8-24.32-111.68a183.35,183.35,0,0,0-13.06-16,183.32,183.32,0,0,0,20-5.29C379.21,226.19,412.83,195,417.69,165.45Z"/><polygon class="cls-2" points="312.14 248.09 208.84 322.85 105.55 248.09 145.05 127.08 272.64 127.08 312.14 248.09"/><line class="cls-3" x1="208.25" y1="259.14" x2="269.54" y2="253.73"/><line class="cls-3" x1="146.97" y1="253.73" x2="208.25" y2="259.14"/><polygon class="cls-2" points="269.54 253.73 208.25 289.12 146.97 253.73 146.97 182.96 208.25 147.58 269.54 182.96 269.54 253.73"/><line class="cls-2" x1="269.54" y1="182.78" x2="208.25" y2="177.42"/><line class="cls-2" x1="146.97" y1="182.96" x2="208.25" y2="177.42"/><line class="cls-2" x1="269.54" y1="182.96" x2="243.64" y2="238.71"/><line class="cls-2" x1="208.25" y1="289.12" x2="243.64" y2="238.71"/><line class="cls-2" x1="146.97" y1="182.96" x2="172.87" y2="238.71"/><line class="cls-2" x1="208.25" y1="289.12" x2="172.87" y2="238.71"/><polygon class="cls-2" points="243.64 238.71 208.25 177.42 172.87 238.71 243.64 238.71"/><polygon class="cls-2" points="172.87 197.39 208.25 258.68 243.64 197.39 172.87 197.39"/><line class="cls-2" x1="146.97" y1="182.96" x2="172.87" y2="197.39"/><line class="cls-2" x1="243.64" y1="197.39" x2="269.54" y2="182.96"/><line class="cls-2" x1="208.25" y1="258.68" x2="208.25" y2="289.12"/><circle class="cls-4" cx="208.25" cy="289.11" r="4.27"/><circle class="cls-4" cx="146.96" cy="182.94" r="4.27"/><circle class="cls-4" cx="172.87" cy="238.71" r="4.27"/><circle class="cls-4" cx="243.64" cy="238.71" r="4.27"/><circle class="cls-4" cx="208.25" cy="177.42" r="4.27"/><circle class="cls-4" cx="269.54" cy="182.96" r="4.27"/><line class="cls-2" x1="269.54" y1="253.73" x2="243.64" y2="197.39"/><line class="cls-2" x1="208.25" y1="147.58" x2="243.64" y2="197.39"/><line class="cls-2" x1="146.97" y1="253.73" x2="172.87" y2="197.39"/><line class="cls-2" x1="208.25" y1="147.58" x2="172.87" y2="197.39"/><line class="cls-2" x1="208.25" y1="289.12" x2="157.17" y2="285.15"/><line class="cls-2" x1="259.33" y1="286.01" x2="208.25" y2="289.12"/><line class="cls-2" x1="125.18" y1="188.1" x2="146.97" y2="182.96"/><line class="cls-2" x1="292.51" y1="188.1" x2="269.54" y2="182.96"/><line class="cls-2" x1="146.97" y1="253.73" x2="105.55" y2="248"/><line class="cls-2" x1="269.54" y1="253.73" x2="312.14" y2="248"/><line class="cls-2" x1="145.05" y1="126.98" x2="208.25" y2="147.58"/><line class="cls-2" x1="272.64" y1="126.98" x2="208.25" y2="147.58"/><line class="cls-2" x1="208.85" y1="127.08" x2="208.38" y2="31.98"/><line class="cls-2" x1="125.18" y1="188.1" x2="36.12" y2="157.59"/><line class="cls-2" x1="102.48" y1="359.95" x2="157.17" y2="285.15"/><line class="cls-2" x1="315.21" y1="359.95" x2="259.33" y2="286.01"/><line class="cls-2" x1="381.57" y1="157.59" x2="292.51" y2="188.1"/><line class="cls-2" x1="312.14" y1="248.09" x2="381.57" y2="157.59"/><line class="cls-2" x1="272.64" y1="127.08" x2="381.57" y2="157.59"/><line class="cls-2" x1="145.05" y1="127.08" x2="208.38" y2="31.98"/><line class="cls-2" x1="272.64" y1="127.08" x2="208.38" y2="31.98"/><line class="cls-2" x1="105.31" y1="246.68" x2="36.12" y2="157.59"/><line class="cls-2" x1="145.05" y1="127.08" x2="36.12" y2="157.59"/><line class="cls-2" x1="105.31" y1="246.68" x2="102.48" y2="359.95"/><line class="cls-2" x1="208.85" y1="322.85" x2="102.48" y2="359.95"/><line class="cls-2" x1="312.14" y1="248.09" x2="315.21" y2="359.95"/><line class="cls-2" x1="208.85" y1="322.85" x2="315.21" y2="359.95"/></g></g></svg>